<svg width="36" height="38" viewBox="0 0 36 38" fill="none" xmlns="http://www.w3.org/2000/svg" data-test="map-center"><path fill-rule="evenodd" clip-rule="evenodd" d="M18 37.4C27.9411 37.4 36 29.0724 36 18.8C36 8.52745 27.9411 0.199951 18 0.199951C8.05887 0.199951 0 8.52745 0 18.8C0 29.0724 8.05887 37.4 18 37.4Z" fill="white"></path><path fill-rule="evenodd" clip-rule="evenodd" d="M25.4166 17.5083H28V20.0917H25.4166C24.8333 23.3639 22.4167 25.9472 19.25 26.4639V29.1333H16.75V26.4639C13.5833 25.8611 11.0834 23.3639 10.5834 20.0917H8V17.5083H10.5834C11.1667 14.2361 13.5833 11.6528 16.75 11.1361V8.46667H19.25V11.1361C22.4167 11.7389 24.9166 14.2361 25.4166 17.5083ZM13 18.8C13 21.6417 15.25 23.9667 18 23.9667C20.75 23.9667 23 21.6417 23 18.8C23 15.9583 20.75 13.6333 18 13.6333C15.25 13.6333 13 15.9583 13 18.8ZM20.5 18.8C20.5 20.2267 19.3807 21.3833 18 21.3833C16.6193 21.3833 15.5 20.2267 15.5 18.8C15.5 17.3733 16.6193 16.2167 18 16.2167C19.3807 16.2167 20.5 17.3733 20.5 18.8Z" fill="black"></path></svg>